<svg width="20" height="12" viewBox="0 0 20 12" fill="none" xmlns="http://www.w3.org/2000/svg">
<path d="M20 6C20 9.29231 17.3231 12 14 12C10.7077 12 8 9.29231 8 6C8 2.70769 10.6769 0 13.9692 0C17.3231 0 20 2.70769 20 6Z" fill="#F9B50B"/>
<path d="M11.9692 6.03077C11.9692 5.6 11.9077 5.16923 11.8462 4.76923H8.15385C8.18462 4.55385 8.24615 4.36923 8.30769 4.12308H11.6C11.5385 3.90769 11.4462 3.69231 11.3538 3.47692H8.55385C8.64615 3.26154 8.76923 3.07692 8.89231 2.83077H11.0154C10.8923 2.61538 10.7385 2.4 10.5538 2.18462H9.38462C9.56923 1.96923 9.75385 1.78462 10 1.56923C8.95385 0.584615 7.53846 0 5.96923 0C2.70769 0.0923077 0 2.70769 0 6C0 9.29231 2.67692 12 6 12C7.56923 12 8.95385 11.3846 10.0308 10.4308C10.2462 10.2462 10.4308 10.0308 10.6462 9.78462H9.41539C9.26154 9.6 9.10769 9.38462 8.98462 9.16923H11.0769C11.2 8.98462 11.3231 8.76923 11.4154 8.52308H8.61539C8.52308 8.33846 8.43077 8.12308 8.36923 7.87692H11.6615C11.8462 7.32308 11.9692 6.70769 11.9692 6.03077Z" fill="#EB5757"/>
<path d="M8.12303 7.53853L8.21534 6.98468C8.18457 6.98468 8.12303 7.01545 8.06149 7.01545C7.84611 7.01545 7.81534 6.89237 7.84611 6.83083L8.03072 5.72314H8.36918L8.46149 5.10776H8.1538L8.21534 4.73853H7.56918C7.56918 4.73853 7.19995 6.83083 7.19995 7.07699C7.19995 7.44622 7.41534 7.63083 7.72303 7.63083C7.90764 7.63083 8.06149 7.56929 8.12303 7.53853Z" fill="white"/>
<path d="M8.3385 6.52306C8.3385 7.41536 8.95389 7.63075 9.44619 7.63075C9.90773 7.63075 10.1231 7.53844 10.1231 7.53844L10.2462 6.92306C10.2462 6.92306 9.90773 7.0769 9.56927 7.0769C8.86158 7.0769 8.98465 6.55383 8.98465 6.55383H10.277C10.277 6.55383 10.3693 6.15383 10.3693 5.96921C10.3693 5.56921 10.1539 5.04613 9.44619 5.04613C8.83081 5.01536 8.3385 5.72306 8.3385 6.52306ZM9.44619 5.59998C9.78465 5.59998 9.72312 5.99998 9.72312 6.03075H9.01542C9.04619 5.99998 9.10773 5.59998 9.44619 5.59998Z" fill="white"/>
<path d="M13.4769 7.53848L13.5999 6.83079C13.5999 6.83079 13.2923 6.98463 13.0461 6.98463C12.6153 6.98463 12.3999 6.64617 12.3999 6.24617C12.3999 5.47694 12.7692 5.07694 13.2307 5.07694C13.5384 5.07694 13.8153 5.26156 13.8153 5.26156L13.9076 4.58463C13.9076 4.58463 13.5384 4.43079 13.1692 4.43079C12.4307 4.43079 11.723 5.07694 11.723 6.27694C11.723 7.07694 12.0923 7.60002 12.8615 7.60002C13.1384 7.63079 13.4769 7.53848 13.4769 7.53848Z" fill="white"/>
<path d="M4.64617 5.01538C4.2154 5.01538 3.87694 5.13846 3.87694 5.13846L3.78463 5.6923C3.78463 5.6923 4.06155 5.56923 4.49232 5.56923C4.70771 5.56923 4.89232 5.6 4.89232 5.78461C4.89232 5.90769 4.86155 5.93846 4.86155 5.93846H4.58463C4.03078 5.93846 3.44617 6.15384 3.44617 6.8923C3.44617 7.47692 3.8154 7.6 4.06155 7.6C4.49232 7.6 4.70771 7.32307 4.73847 7.32307L4.70771 7.56923H5.23078L5.47694 5.81538C5.47694 5.04615 4.86155 5.01538 4.64617 5.01538ZM4.76924 6.43077C4.76924 6.52307 4.70771 7.04615 4.33847 7.04615C4.15386 7.04615 4.09232 6.8923 4.09232 6.8C4.09232 6.64615 4.18463 6.43077 4.67694 6.43077C4.73847 6.43077 4.76924 6.43077 4.76924 6.43077Z" fill="white"/>
<path d="M6.09235 7.6C6.2462 7.6 7.0462 7.63077 7.0462 6.76923C7.0462 5.96923 6.27697 6.12308 6.27697 5.81539C6.27697 5.66154 6.40004 5.6 6.61543 5.6C6.70774 5.6 7.0462 5.63077 7.0462 5.63077L7.13851 5.04616C7.13851 5.04616 6.92312 4.98462 6.52312 4.98462C6.06158 4.98462 5.56927 5.16923 5.56927 5.81539C5.56927 6.55385 6.36927 6.49231 6.36927 6.76923C6.36927 6.95385 6.15389 6.98462 6.00004 6.98462C5.72312 6.98462 5.41543 6.89231 5.41543 6.89231L5.32312 7.47693C5.38466 7.53847 5.56927 7.6 6.09235 7.6Z" fill="white"/>
<path d="M18.7692 4.52307L18.6462 5.38461C18.6462 5.38461 18.4 5.07692 18.0308 5.07692C17.4462 5.07692 16.9539 5.78461 16.9539 6.61538C16.9539 7.13846 17.2 7.66153 17.7539 7.66153C18.1231 7.66153 18.3692 7.41538 18.3692 7.41538L18.3385 7.63076H18.9846L19.4462 4.58461L18.7692 4.52307ZM18.4616 6.18461C18.4616 6.52307 18.3077 6.98461 17.9385 6.98461C17.7231 6.98461 17.6 6.79999 17.6 6.46153C17.6 5.93846 17.8154 5.63076 18.1231 5.63076C18.3385 5.66153 18.4616 5.81538 18.4616 6.18461Z" fill="white"/>
<path d="M1.16922 7.56923L1.53845 5.2923L1.59999 7.56923H2.03076L2.86153 5.2923L2.52306 7.56923H3.19999L3.72306 4.52307H2.67691L2.03076 6.39999L1.99999 4.52307H1.07691L0.553833 7.56923H1.16922Z" fill="white"/>
<path d="M11.0154 7.56921C11.2 6.52306 11.2308 5.66152 11.6924 5.81537C11.7539 5.41537 11.8462 5.23075 11.9077 5.0769H11.7847C11.5077 5.0769 11.2616 5.44614 11.2616 5.44614L11.3231 5.10767H10.7077L10.3077 7.56921H11.0154Z" fill="white"/>
<path d="M14.9538 5.01538C14.523 5.01538 14.1846 5.13846 14.1846 5.13846L14.0922 5.6923C14.0922 5.6923 14.3692 5.56923 14.7999 5.56923C15.0153 5.56923 15.1999 5.6 15.1999 5.78461C15.1999 5.90769 15.1692 5.93846 15.1692 5.93846H14.8922C14.3384 5.93846 13.7538 6.15384 13.7538 6.8923C13.7538 7.47692 14.123 7.6 14.3692 7.6C14.7999 7.6 15.0153 7.32307 15.0461 7.32307L15.0153 7.56923H15.5999L15.8461 5.81538C15.8461 5.04615 15.1692 5.01538 14.9538 5.01538ZM15.1076 6.43077C15.1076 6.52307 15.0461 7.04615 14.6769 7.04615C14.4922 7.04615 14.4307 6.8923 14.4307 6.8C14.4307 6.64615 14.523 6.43077 15.0153 6.43077C15.0769 6.43077 15.0769 6.43077 15.1076 6.43077Z" fill="white"/>
<path d="M16.3384 7.56921C16.523 6.52306 16.5538 5.66152 17.0154 5.81537C17.0769 5.41537 17.1692 5.23075 17.2307 5.0769H17.1077C16.8307 5.0769 16.5846 5.44614 16.5846 5.44614L16.6461 5.10767H16.0307L15.6307 7.56921H16.3384Z" fill="white"/>
</svg>
