<svg width="18" height="18" viewBox="0 0 18 18" fill="none" xmlns="http://www.w3.org/2000/svg">
<circle cx="9" cy="9" r="9" fill="#521E8A"/>
<path d="M9.22986 8.38889C7.89194 8.06111 7.46169 7.72222 7.46169 7.19444C7.46169 6.58889 8.05697 6.16667 9.05305 6.16667C10.1022 6.16667 10.4912 6.63889 10.5265 7.33333H11.8291C11.7878 6.37778 11.169 5.5 9.93713 5.21667V4H8.16896V5.2C7.02554 5.43333 6.10609 6.13333 6.10609 7.20556C6.10609 8.48889 7.23183 9.12778 8.87623 9.5C10.3497 9.83333 10.6444 10.3222 10.6444 10.8389C10.6444 11.2222 10.3556 11.8333 9.05305 11.8333C7.8389 11.8333 7.36149 11.3222 7.29666 10.6667H6C6.07073 11.8833 7.03733 12.5667 8.16896 12.7944V14H9.93713V12.8056C11.0864 12.6 12 11.9722 12 10.8333C12 9.25556 10.5678 8.71667 9.22986 8.38889Z" fill="white"/>
</svg>
