<svg width="20" height="6" viewBox="0 0 20 6" fill="none" xmlns="http://www.w3.org/2000/svg">
<path d="M18.2285 0.0858154H16.9999C16.6285 0.0858154 16.3428 0.200101 16.1713 0.57153L13.8285 5.91439H15.4856C15.4856 5.91439 15.7713 5.2001 15.8285 5.02867C15.9999 5.02867 17.6285 5.02867 17.8571 5.02867C17.9142 5.22867 18.0571 5.88582 18.0571 5.88582H19.5428L18.2285 0.0858154ZM16.2856 3.82867C16.4285 3.48582 16.9142 2.2001 16.9142 2.2001C16.9142 2.22867 17.0571 1.85724 17.1142 1.65724L17.2285 2.17153C17.2285 2.17153 17.5428 3.57153 17.5999 3.85724H16.2856V3.82867Z" fill="#3362AB"/>
<path d="M13.943 4C13.943 5.2 12.8573 6 11.1716 6C10.4573 6 9.77158 5.85714 9.40015 5.68571L9.62872 4.37143L9.82872 4.45714C10.343 4.68571 10.6859 4.77143 11.3144 4.77143C11.7716 4.77143 12.2573 4.6 12.2573 4.2C12.2573 3.94286 12.0573 3.77143 11.4287 3.48571C10.8287 3.2 10.0287 2.74286 10.0287 1.91429C10.0287 0.771429 11.143 0 12.7144 0C13.3144 0 13.8287 0.114286 14.143 0.257143L13.9144 1.51429L13.8001 1.4C13.5144 1.28571 13.143 1.17143 12.6001 1.17143C12.0001 1.2 11.7144 1.45714 11.7144 1.68571C11.7144 1.94286 12.0573 2.14286 12.6001 2.4C13.5144 2.82857 13.943 3.31429 13.943 4Z" fill="#3362AB"/>
<path d="M0 0.14285L0.0285714 0.0285645H2.48571C2.82857 0.0285645 3.08571 0.14285 3.17143 0.514279L3.71429 3.08571C3.17143 1.71428 1.91429 0.599993 0 0.14285Z" fill="#F9B50B"/>
<path d="M7.17141 0.0857003L4.6857 5.8857H2.99998L1.57141 1.02856C2.59998 1.6857 3.45713 2.71427 3.77141 3.42856L3.94284 4.02856L5.4857 0.0571289H7.17141V0.0857003Z" fill="#3362AB"/>
<path d="M7.82849 0.0571289H9.39992L8.39992 5.8857H6.82849L7.82849 0.0571289Z" fill="#3362AB"/>
</svg>
