<svg width="18" height="18" viewBox="0 0 18 18" fill="none" xmlns="http://www.w3.org/2000/svg">
<circle cx="9" cy="9" r="9" fill="#002A5F"/>
<path d="M14.0389 11.9119V6.08838L12.359 9.00014L14.0389 11.9119Z" fill="url(#paint0_linear)"/>
<path d="M3.95991 6.08823L3.95991 11.9117L5.63977 8.99999L3.95991 6.08823Z" fill="url(#paint1_linear)"/>
<path d="M8.99933 14.8235L14.0389 11.9117L10.6792 11.9117L8.99933 14.8235Z" fill="url(#paint2_linear)"/>
<path d="M5.63982 9L7.31968 11.9118H3.95996L5.63982 9Z" fill="url(#paint3_linear)"/>
<path d="M9.01294 8.9794L7.33309 9.94854L7.33309 8.01025L9.01294 8.9794Z" fill="url(#paint4_linear)"/>
<path d="M10.6926 8.01053L9.01278 8.97967L9.01278 7.04138L10.6926 8.01053Z" fill="white"/>
<path d="M7.33313 9.9487L9.01298 8.97956L9.01298 10.9178L7.33313 9.9487Z" fill="white"/>
<path d="M10.6926 9.94876L9.01278 10.9179L9.01278 8.97961L10.6926 9.94876Z" fill="white"/>
<path d="M7.33313 8.01047L9.01298 7.04132L9.01298 8.97961L7.33313 8.01047Z" fill="white"/>
<path d="M9.01294 8.97946L10.6928 8.01032L10.6928 9.94861L9.01294 8.97946Z" fill="white"/>
<path d="M12.3592 9L10.6793 6.08824L14.0391 6.08824L12.3592 9Z" fill="url(#paint5_linear)"/>
<path d="M12.3589 9L14.0388 11.9118H10.6791L12.3589 9Z" fill="url(#paint6_linear)"/>
<path d="M3.95996 11.9117L8.99952 14.8235L10.6794 11.9117H3.95996Z" fill="white"/>
<path d="M3.95996 6.08827L8.99954 3.17651L14.0391 6.08827L7.31968 6.08827L5.63982 9.00003L3.95996 6.08827Z" fill="white"/>
<defs>
<linearGradient id="paint0_linear" x1="10.6838" y1="6.08838" x2="14.0435" y2="11.9175" gradientUnits="userSpaceOnUse">
<stop stop-color="white" stop-opacity="0.25"/>
<stop offset="1" stop-color="white"/>
</linearGradient>
<linearGradient id="paint1_linear" x1="3.95897" y1="11.9117" x2="3.95991" y2="6.08823" gradientUnits="userSpaceOnUse">
<stop stop-color="white"/>
<stop offset="1" stop-color="white" stop-opacity="0.25"/>
</linearGradient>
<linearGradient id="paint2_linear" x1="8.99932" y1="14.8235" x2="12.3581" y2="8.99995" gradientUnits="userSpaceOnUse">
<stop stop-color="white"/>
<stop offset="1" stop-color="white" stop-opacity="0.25"/>
</linearGradient>
<linearGradient id="paint3_linear" x1="3.95996" y1="6.09384" x2="3.95902" y2="11.9118" gradientUnits="userSpaceOnUse">
<stop stop-color="white" stop-opacity="0.25"/>
<stop offset="1" stop-color="white"/>
</linearGradient>
<linearGradient id="paint4_linear" x1="7.33308" y1="8.00508" x2="8.17301" y2="9.37136" gradientUnits="userSpaceOnUse">
<stop offset="0.113338" stop-color="white" stop-opacity="0.25"/>
<stop offset="1" stop-color="white"/>
</linearGradient>
<linearGradient id="paint5_linear" x1="10.6784" y1="6.08824" x2="14.0381" y2="11.9118" gradientUnits="userSpaceOnUse">
<stop stop-color="white"/>
<stop offset="1" stop-color="white" stop-opacity="0.25"/>
</linearGradient>
<linearGradient id="paint6_linear" x1="8.99828" y1="14.8235" x2="12.3589" y2="9" gradientUnits="userSpaceOnUse">
<stop stop-color="white"/>
<stop offset="1" stop-color="white" stop-opacity="0.25"/>
</linearGradient>
</defs>
</svg>
